<?xml version="1.0" standalone="no"?>
<!DOCTYPE svg PUBLIC "-//W3C//DTD SVG 1.1//EN" "http://www.w3.org/Graphics/SVG/1.1/DTD/svg11.dtd">
<svg version="1.1" width="1200" height="534" onload="init(evt)" viewBox="0 0 1200 534" xmlns="http://www.w3.org/2000/svg" xmlns:xlink="http://www.w3.org/1999/xlink">
<!-- Flame graph stack visualization. See https://github.com/brendangregg/FlameGraph for latest version, and http://www.brendangregg.com/flamegraphs.html for examples. -->
<!-- NOTES:  -->
<defs>
	<linearGradient id="background" y1="0" y2="1" x1="0" x2="0" >
		<stop stop-color="#eeeeee" offset="5%" />
		<stop stop-color="#eeeeb0" offset="95%" />
	</linearGradient>
</defs>
<style type="text/css">
	text { font-family:Verdana; font-size:12px; fill:rgb(0,0,0); }
	#search, #ignorecase { opacity:0.1; cursor:pointer; }
	#search:hover, #search.show, #ignorecase:hover, #ignorecase.show { opacity:1; }
	#subtitle { text-anchor:middle; font-color:rgb(160,160,160); }
	#title { text-anchor:middle; font-size:17px}
	#unzoom { cursor:pointer; }
	#frames > *:hover { stroke:black; stroke-width:0.5; cursor:pointer; }
	.hide { display:none; }
	.parent { opacity:0.5; }
</style>
<script type="text/ecmascript">
<![CDATA[
	"use strict";
	var details, searchbtn, unzoombtn, matchedtxt, svg, searching, currentSearchTerm, ignorecase, ignorecaseBtn;
	function init(evt) {
		details = document.getElementById("details").firstChild;
		searchbtn = document.getElementById("search");
		ignorecaseBtn = document.getElementById("ignorecase");
		unzoombtn = document.getElementById("unzoom");
		matchedtxt = document.getElementById("matched");
		svg = document.getElementsByTagName("svg")[0];
		searching = 0;
		currentSearchTerm = null;

		// use GET parameters to restore a flamegraphs state.
		var params = get_params();
		if (params.x && params.y)
			zoom(find_group(document.querySelector('[x="' + params.x + '"][y="' + params.y + '"]')));
                if (params.s) search(params.s);
	}

	// event listeners
	window.addEventListener("click", function(e) {
		var target = find_group(e.target);
		if (target) {
			if (target.nodeName == "a") {
				if (e.ctrlKey === false) return;
				e.preventDefault();
			}
			if (target.classList.contains("parent")) unzoom(true);
			zoom(target);
			if (!document.querySelector('.parent')) {
				// we have basically done a clearzoom so clear the url
				var params = get_params();
				if (params.x) delete params.x;
				if (params.y) delete params.y;
				history.replaceState(null, null, parse_params(params));
				unzoombtn.classList.add("hide");
				return;
			}

			// set parameters for zoom state
			var el = target.querySelector("rect");
			if (el && el.attributes && el.attributes.y && el.attributes._orig_x) {
				var params = get_params()
				params.x = el.attributes._orig_x.value;
				params.y = el.attributes.y.value;
				history.replaceState(null, null, parse_params(params));
			}
		}
		else if (e.target.id == "unzoom") clearzoom();
		else if (e.target.id == "search") search_prompt();
		else if (e.target.id == "ignorecase") toggle_ignorecase();
	}, false)

	// mouse-over for info
	// show
	window.addEventListener("mouseover", function(e) {
		var target = find_group(e.target);
		if (target) details.nodeValue = "Function: " + g_to_text(target);
	}, false)

	// clear
	window.addEventListener("mouseout", function(e) {
		var target = find_group(e.target);
		if (target) details.nodeValue = ' ';
	}, false)

	// ctrl-F for search
	// ctrl-I to toggle case-sensitive search
	window.addEventListener("keydown",function (e) {
		if (e.keyCode === 114 || (e.ctrlKey && e.keyCode === 70)) {
			e.preventDefault();
			search_prompt();
		}
		else if (e.ctrlKey && e.keyCode === 73) {
			e.preventDefault();
			toggle_ignorecase();
		}
	}, false)

	// functions
	function get_params() {
		var params = {};
		var paramsarr = window.location.search.substr(1).split('&');
		for (var i = 0; i < paramsarr.length; ++i) {
			var tmp = paramsarr[i].split("=");
			if (!tmp[0] || !tmp[1]) continue;
			params[tmp[0]]  = decodeURIComponent(tmp[1]);
		}
		return params;
	}
	function parse_params(params) {
		var uri = "?";
		for (var key in params) {
			uri += key + '=' + encodeURIComponent(params[key]) + '&';
		}
		if (uri.slice(-1) == "&")
			uri = uri.substring(0, uri.length - 1);
		if (uri == '?')
			uri = window.location.href.split('?')[0];
		return uri;
	}
	function find_child(node, selector) {
		var children = node.querySelectorAll(selector);
		if (children.length) return children[0];
	}
	function find_group(node) {
		var parent = node.parentElement;
		if (!parent) return;
		if (parent.id == "frames") return node;
		return find_group(parent);
	}
	function orig_save(e, attr, val) {
		if (e.attributes["_orig_" + attr] != undefined) return;
		if (e.attributes[attr] == undefined) return;
		if (val == undefined) val = e.attributes[attr].value;
		e.setAttribute("_orig_" + attr, val);
	}
	function orig_load(e, attr) {
		if (e.attributes["_orig_"+attr] == undefined) return;
		e.attributes[attr].value = e.attributes["_orig_" + attr].value;
		e.removeAttribute("_orig_"+attr);
	}
	function g_to_text(e) {
		var text = find_child(e, "title").firstChild.nodeValue;
		return (text)
	}
	function g_to_func(e) {
		var func = g_to_text(e);
		// if there's any manipulation we want to do to the function
		// name before it's searched, do it here before returning.
		return (func);
	}
	function update_text(e) {
		var r = find_child(e, "rect");
		var t = find_child(e, "text");
		var w = parseFloat(r.attributes.width.value) -3;
		var txt = find_child(e, "title").textContent.replace(/\([^(]*\)$/,"");
		t.attributes.x.value = parseFloat(r.attributes.x.value) + 3;

		// Smaller than this size won't fit anything
		if (w < 2 * 12 * 0.59) {
			t.textContent = "";
			return;
		}

		t.textContent = txt;
		var sl = t.getSubStringLength(0, txt.length);
		// check if only whitespace or if we can fit the entire string into width w
		if (/^ *$/.test(txt) || sl < w)
			return;

		// this isn't perfect, but gives a good starting point
		// and avoids calling getSubStringLength too often
		var start = Math.floor((w/sl) * txt.length);
		for (var x = start; x > 0; x = x-2) {
			if (t.getSubStringLength(0, x + 2) <= w) {
				t.textContent = txt.substring(0, x) + "..";
				return;
			}
		}
		t.textContent = "";
	}

	// zoom
	function zoom_reset(e) {
		if (e.attributes != undefined) {
			orig_load(e, "x");
			orig_load(e, "width");
		}
		if (e.childNodes == undefined) return;
		for (var i = 0, c = e.childNodes; i < c.length; i++) {
			zoom_reset(c[i]);
		}
	}
	function zoom_child(e, x, ratio) {
		if (e.attributes != undefined) {
			if (e.attributes.x != undefined) {
				orig_save(e, "x");
				e.attributes.x.value = (parseFloat(e.attributes.x.value) - x - 10) * ratio + 10;
				if (e.tagName == "text")
					e.attributes.x.value = find_child(e.parentNode, "rect[x]").attributes.x.value + 3;
			}
			if (e.attributes.width != undefined) {
				orig_save(e, "width");
				e.attributes.width.value = parseFloat(e.attributes.width.value) * ratio;
			}
		}

		if (e.childNodes == undefined) return;
		for (var i = 0, c = e.childNodes; i < c.length; i++) {
			zoom_child(c[i], x - 10, ratio);
		}
	}
	function zoom_parent(e) {
		if (e.attributes) {
			if (e.attributes.x != undefined) {
				orig_save(e, "x");
				e.attributes.x.value = 10;
			}
			if (e.attributes.width != undefined) {
				orig_save(e, "width");
				e.attributes.width.value = parseInt(svg.width.baseVal.value) - (10 * 2);
			}
		}
		if (e.childNodes == undefined) return;
		for (var i = 0, c = e.childNodes; i < c.length; i++) {
			zoom_parent(c[i]);
		}
	}
	function zoom(node) {
		var attr = find_child(node, "rect").attributes;
		var width = parseFloat(attr.width.value);
		var xmin = parseFloat(attr.x.value);
		var xmax = parseFloat(xmin + width);
		var ymin = parseFloat(attr.y.value);
		var ratio = (svg.width.baseVal.value - 2 * 10) / width;

		// XXX: Workaround for JavaScript float issues (fix me)
		var fudge = 0.0001;

		unzoombtn.classList.remove("hide");

		var el = document.getElementById("frames").children;
		for (var i = 0; i < el.length; i++) {
			var e = el[i];
			var a = find_child(e, "rect").attributes;
			var ex = parseFloat(a.x.value);
			var ew = parseFloat(a.width.value);
			var upstack;
			// Is it an ancestor
			if (0 == 0) {
				upstack = parseFloat(a.y.value) > ymin;
			} else {
				upstack = parseFloat(a.y.value) < ymin;
			}
			if (upstack) {
				// Direct ancestor
				if (ex <= xmin && (ex+ew+fudge) >= xmax) {
					e.classList.add("parent");
					zoom_parent(e);
					update_text(e);
				}
				// not in current path
				else
					e.classList.add("hide");
			}
			// Children maybe
			else {
				// no common path
				if (ex < xmin || ex + fudge >= xmax) {
					e.classList.add("hide");
				}
				else {
					zoom_child(e, xmin, ratio);
					update_text(e);
				}
			}
		}
		search();
	}
	function unzoom(dont_update_text) {
		unzoombtn.classList.add("hide");
		var el = document.getElementById("frames").children;
		for(var i = 0; i < el.length; i++) {
			el[i].classList.remove("parent");
			el[i].classList.remove("hide");
			zoom_reset(el[i]);
			if(!dont_update_text) update_text(el[i]);
		}
		search();
	}
	function clearzoom() {
		unzoom();

		// remove zoom state
		var params = get_params();
		if (params.x) delete params.x;
		if (params.y) delete params.y;
		history.replaceState(null, null, parse_params(params));
	}

	// search
	function toggle_ignorecase() {
		ignorecase = !ignorecase;
		if (ignorecase) {
			ignorecaseBtn.classList.add("show");
		} else {
			ignorecaseBtn.classList.remove("show");
		}
		reset_search();
		search();
	}
	function reset_search() {
		var el = document.querySelectorAll("#frames rect");
		for (var i = 0; i < el.length; i++) {
			orig_load(el[i], "fill")
		}
		var params = get_params();
		delete params.s;
		history.replaceState(null, null, parse_params(params));
	}
	function search_prompt() {
		if (!searching) {
			var term = prompt("Enter a search term (regexp " +
			    "allowed, eg: ^ext4_)"
			    + (ignorecase ? ", ignoring case" : "")
			    + "\nPress Ctrl-i to toggle case sensitivity", "");
			if (term != null) search(term);
		} else {
			reset_search();
			searching = 0;
			currentSearchTerm = null;
			searchbtn.classList.remove("show");
			searchbtn.firstChild.nodeValue = "Search"
			matchedtxt.classList.add("hide");
			matchedtxt.firstChild.nodeValue = ""
		}
	}
	function search(term) {
		if (term) currentSearchTerm = term;
		if (currentSearchTerm === null) return;

		var re = new RegExp(currentSearchTerm, ignorecase ? 'i' : '');
		var el = document.getElementById("frames").children;
		var matches = new Object();
		var maxwidth = 0;
		for (var i = 0; i < el.length; i++) {
			var e = el[i];
			var func = g_to_func(e);
			var rect = find_child(e, "rect");
			if (func == null || rect == null)
				continue;

			// Save max width. Only works as we have a root frame
			var w = parseFloat(rect.attributes.width.value);
			if (w > maxwidth)
				maxwidth = w;

			if (func.match(re)) {
				// highlight
				var x = parseFloat(rect.attributes.x.value);
				orig_save(rect, "fill");
				rect.attributes.fill.value = "rgb(230,0,230)";

				// remember matches
				if (matches[x] == undefined) {
					matches[x] = w;
				} else {
					if (w > matches[x]) {
						// overwrite with parent
						matches[x] = w;
					}
				}
				searching = 1;
			}
		}
		if (!searching)
			return;
		var params = get_params();
		params.s = currentSearchTerm;
		history.replaceState(null, null, parse_params(params));

		searchbtn.classList.add("show");
		searchbtn.firstChild.nodeValue = "Reset Search";

		// calculate percent matched, excluding vertical overlap
		var count = 0;
		var lastx = -1;
		var lastw = 0;
		var keys = Array();
		for (k in matches) {
			if (matches.hasOwnProperty(k))
				keys.push(k);
		}
		// sort the matched frames by their x location
		// ascending, then width descending
		keys.sort(function(a, b){
			return a - b;
		});
		// Step through frames saving only the biggest bottom-up frames
		// thanks to the sort order. This relies on the tree property
		// where children are always smaller than their parents.
		var fudge = 0.0001;	// JavaScript floating point
		for (var k in keys) {
			var x = parseFloat(keys[k]);
			var w = matches[keys[k]];
			if (x >= lastx + lastw - fudge) {
				count += w;
				lastx = x;
				lastw = w;
			}
		}
		// display matched percent
		matchedtxt.classList.remove("hide");
		var pct = 100 * count / maxwidth;
		if (pct != 100) pct = pct.toFixed(1)
		matchedtxt.firstChild.nodeValue = "Matched: " + pct + "%";
	}
]]>
</script>
<rect x="0.0" y="0" width="1200.0" height="534.0" fill="url(#background)"  />
<text id="title" x="600.00" y="24" >Flame Graph</text>
<text id="details" x="10.00" y="517" > </text>
<text id="unzoom" x="10.00" y="24" class="hide">Reset Zoom</text>
<text id="search" x="1090.00" y="24" >Search</text>
<text id="ignorecase" x="1174.00" y="24" >ic</text>
<text id="matched" x="1090.00" y="517" > </text>
<g id="frames">
<g >
<title>alloc_frozen_pages_noprof (652,045 samples, 0.01%)</title><rect x="1188.6" y="101" width="0.2" height="15.0" fill="rgb(206,5,1)" rx="2" ry="2" />
<text  x="1191.61" y="111.5" ></text>
</g>
<g >
<title>get_page_from_freelist (71,553,336 samples, 1.62%)</title><rect x="1151.0" y="101" width="19.0" height="15.0" fill="rgb(252,218,52)" rx="2" ry="2" />
<text  x="1153.96" y="111.5" ></text>
</g>
<g >
<title>__default_morecore@GLIBC_2.17 (2,603,599 samples, 0.06%)</title><rect x="1187.7" y="293" width="0.7" height="15.0" fill="rgb(230,118,28)" rx="2" ry="2" />
<text  x="1190.74" y="303.5" ></text>
</g>
<g >
<title>do_page_fault (199,674,981 samples, 4.51%)</title><rect x="1133.8" y="277" width="53.3" height="15.0" fill="rgb(216,54,13)" rx="2" ry="2" />
<text  x="1136.78" y="287.5" >do_pa..</text>
</g>
<g >
<title>folio_add_lru_vma (649,998 samples, 0.01%)</title><rect x="1181.8" y="213" width="0.2" height="15.0" fill="rgb(252,216,51)" rx="2" ry="2" />
<text  x="1184.85" y="223.5" ></text>
</g>
<g >
<title>get_page_from_freelist (418,600 samples, 0.01%)</title><rect x="10.0" y="117" width="0.1" height="15.0" fill="rgb(252,218,52)" rx="2" ry="2" />
<text  x="13.00" y="127.5" ></text>
</g>
<g >
<title>vma_alloc_folio_noprof (418,600 samples, 0.01%)</title><rect x="10.0" y="181" width="0.1" height="15.0" fill="rgb(218,61,14)" rx="2" ry="2" />
<text  x="13.00" y="191.5" ></text>
</g>
<g >
<title>_IO_file_write@@GLIBC_2.17 (654,427 samples, 0.01%)</title><rect x="671.5" y="309" width="0.2" height="15.0" fill="rgb(205,0,0)" rx="2" ry="2" />
<text  x="674.50" y="319.5" ></text>
</g>
<g >
<title>percpu_counter_add_batch (651,864 samples, 0.01%)</title><rect x="1182.2" y="213" width="0.2" height="15.0" fill="rgb(241,166,39)" rx="2" ry="2" />
<text  x="1185.19" y="223.5" ></text>
</g>
<g >
<title>handle_mm_fault (418,600 samples, 0.01%)</title><rect x="10.0" y="277" width="0.1" height="15.0" fill="rgb(234,135,32)" rx="2" ry="2" />
<text  x="13.00" y="287.5" ></text>
</g>
<g >
<title>handle_pte_fault (173,643,336 samples, 3.93%)</title><rect x="1136.6" y="229" width="46.3" height="15.0" fill="rgb(217,57,13)" rx="2" ry="2" />
<text  x="1139.56" y="239.5" >hand..</text>
</g>
<g >
<title>folio_batch_move_lru (24,096,785 samples, 0.54%)</title><rect x="1171.3" y="149" width="6.4" height="15.0" fill="rgb(207,10,2)" rx="2" ry="2" />
<text  x="1174.26" y="159.5" ></text>
</g>
<g >
<title>__mem_cgroup_charge (1,305,194 samples, 0.03%)</title><rect x="1188.8" y="117" width="0.3" height="15.0" fill="rgb(218,60,14)" rx="2" ry="2" />
<text  x="1191.79" y="127.5" ></text>
</g>
<g >
<title>tty_insert_flip_string_and_push_buffer (654,427 samples, 0.01%)</title><rect x="671.5" y="37" width="0.2" height="15.0" fill="rgb(217,55,13)" rx="2" ry="2" />
<text  x="674.50" y="47.5" ></text>
</g>
<g >
<title>vma_alloc_folio_noprof (633,394 samples, 0.01%)</title><rect x="1189.1" y="101" width="0.2" height="15.0" fill="rgb(218,61,14)" rx="2" ry="2" />
<text  x="1192.13" y="111.5" ></text>
</g>
<g >
<title>get_mem_cgroup_from_mm (1,298,437 samples, 0.03%)</title><rect x="1148.2" y="165" width="0.3" height="15.0" fill="rgb(218,61,14)" rx="2" ry="2" />
<text  x="1151.18" y="175.5" ></text>
</g>
<g >
<title>handle_pte_fault (4,546,119 samples, 0.10%)</title><rect x="1188.6" y="165" width="1.2" height="15.0" fill="rgb(217,57,13)" rx="2" ry="2" />
<text  x="1191.61" y="175.5" ></text>
</g>
<g >
<title>_IO_file_overflow@@GLIBC_2.17 (654,427 samples, 0.01%)</title><rect x="671.5" y="357" width="0.2" height="15.0" fill="rgb(229,114,27)" rx="2" ry="2" />
<text  x="674.50" y="367.5" ></text>
</g>
<g >
<title>el0t_64_sync_handler (213,349,559 samples, 4.82%)</title><rect x="1130.3" y="341" width="56.9" height="15.0" fill="rgb(211,32,7)" rx="2" ry="2" />
<text  x="1133.31" y="351.5" >el0t_6..</text>
</g>
<g >
<title>el0t_64_sync_handler (418,600 samples, 0.01%)</title><rect x="10.0" y="357" width="0.1" height="15.0" fill="rgb(211,32,7)" rx="2" ry="2" />
<text  x="13.00" y="367.5" ></text>
</g>
<g >
<title>el0t_64_sync_handler (2,603,599 samples, 0.06%)</title><rect x="1187.7" y="229" width="0.7" height="15.0" fill="rgb(211,32,7)" rx="2" ry="2" />
<text  x="1190.74" y="239.5" ></text>
</g>
<g >
<title>__pi_clear_page (54,628,193 samples, 1.24%)</title><rect x="1151.3" y="85" width="14.6" height="15.0" fill="rgb(236,144,34)" rx="2" ry="2" />
<text  x="1154.31" y="95.5" ></text>
</g>
<g >
<title>__libc_start_call_main (4,423,141,057 samples, 100.00%)</title><rect x="10.0" y="421" width="1180.0" height="15.0" fill="rgb(210,26,6)" rx="2" ry="2" />
<text  x="13.00" y="431.5" >__libc_start_call_main</text>
</g>
<g >
<title>__pi_clear_page (418,600 samples, 0.01%)</title><rect x="10.0" y="101" width="0.1" height="15.0" fill="rgb(236,144,34)" rx="2" ry="2" />
<text  x="13.00" y="111.5" ></text>
</g>
<g >
<title>css_rstat_updated (648,823 samples, 0.01%)</title><rect x="1181.0" y="133" width="0.2" height="15.0" fill="rgb(206,7,1)" rx="2" ry="2" />
<text  x="1183.98" y="143.5" ></text>
</g>
<g >
<title>__alloc_frozen_pages_noprof (76,743,328 samples, 1.74%)</title><rect x="1149.9" y="117" width="20.5" height="15.0" fill="rgb(228,109,26)" rx="2" ry="2" />
<text  x="1152.92" y="127.5" ></text>
</g>
<g >
<title>__rmqueue_pcplist (9,761,905 samples, 0.22%)</title><rect x="1166.7" y="69" width="2.7" height="15.0" fill="rgb(230,118,28)" rx="2" ry="2" />
<text  x="1169.75" y="79.5" ></text>
</g>
<g >
<title>generate_grid[abi:cxx11] (888,655 samples, 0.02%)</title><rect x="671.3" y="389" width="0.2" height="15.0" fill="rgb(253,224,53)" rx="2" ry="2" />
<text  x="674.26" y="399.5" ></text>
</g>
<g >
<title>get_vma_policy (633,394 samples, 0.01%)</title><rect x="1189.1" y="85" width="0.2" height="15.0" fill="rgb(238,153,36)" rx="2" ry="2" />
<text  x="1192.13" y="95.5" ></text>
</g>
<g >
<title>all (4,423,142,652 samples, 100%)</title><rect x="10.0" y="485" width="1180.0" height="15.0" fill="rgb(213,39,9)" rx="2" ry="2" />
<text  x="13.00" y="495.5" ></text>
</g>
<g >
<title>el0_svc_common.constprop.0 (1,303,529 samples, 0.03%)</title><rect x="1188.1" y="181" width="0.3" height="15.0" fill="rgb(224,89,21)" rx="2" ry="2" />
<text  x="1191.09" y="191.5" ></text>
</g>
<g >
<title>__mod_node_page_state (1,301,793 samples, 0.03%)</title><rect x="1179.9" y="149" width="0.4" height="15.0" fill="rgb(213,38,9)" rx="2" ry="2" />
<text  x="1182.94" y="159.5" ></text>
</g>
<g >
<title>page_ref_add (647,424 samples, 0.01%)</title><rect x="1182.0" y="213" width="0.2" height="15.0" fill="rgb(251,215,51)" rx="2" ry="2" />
<text  x="1185.02" y="223.5" ></text>
</g>
<g >
<title>folio_batch_move_lru (1,304,427 samples, 0.03%)</title><rect x="1189.5" y="85" width="0.3" height="15.0" fill="rgb(207,10,2)" rx="2" ry="2" />
<text  x="1192.48" y="95.5" ></text>
</g>
<g >
<title>try_charge_memcg (652,286 samples, 0.01%)</title><rect x="1148.9" y="165" width="0.1" height="15.0" fill="rgb(210,27,6)" rx="2" ry="2" />
<text  x="1151.87" y="175.5" ></text>
</g>
<g >
<title>compute_congestion_pressure (2,478,274,946 samples, 56.03%)</title><rect x="10.1" y="389" width="661.2" height="15.0" fill="rgb(218,61,14)" rx="2" ry="2" />
<text  x="13.11" y="399.5" >compute_congestion_pressure</text>
</g>
<g >
<title>fault_from_pkey (653,328 samples, 0.01%)</title><rect x="1187.1" y="277" width="0.1" height="15.0" fill="rgb(232,126,30)" rx="2" ry="2" />
<text  x="1190.05" y="287.5" ></text>
</g>
<g >
<title>zone_statistics (648,198 samples, 0.01%)</title><rect x="1169.9" y="85" width="0.1" height="15.0" fill="rgb(232,125,29)" rx="2" ry="2" />
<text  x="1172.87" y="95.5" ></text>
</g>
<g >
<title>el0t_64_sync (5,198,194 samples, 0.12%)</title><rect x="1188.4" y="293" width="1.4" height="15.0" fill="rgb(217,56,13)" rx="2" ry="2" />
<text  x="1191.44" y="303.5" ></text>
</g>
<g >
<title>memcg1_commit_charge (11,045,200 samples, 0.25%)</title><rect x="1144.5" y="149" width="3.0" height="15.0" fill="rgb(219,66,15)" rx="2" ry="2" />
<text  x="1147.54" y="159.5" ></text>
</g>
<g >
<title>invoke_syscall (654,427 samples, 0.01%)</title><rect x="671.5" y="197" width="0.2" height="15.0" fill="rgb(209,18,4)" rx="2" ry="2" />
<text  x="674.50" y="207.5" ></text>
</g>
<g >
<title>do_anonymous_page (167,813,758 samples, 3.79%)</title><rect x="1137.1" y="213" width="44.7" height="15.0" fill="rgb(238,155,37)" rx="2" ry="2" />
<text  x="1140.08" y="223.5" >do_a..</text>
</g>
<g >
<title>__lruvec_stat_mod_folio (647,299 samples, 0.01%)</title><rect x="1181.7" y="181" width="0.1" height="15.0" fill="rgb(246,191,45)" rx="2" ry="2" />
<text  x="1184.68" y="191.5" ></text>
</g>
<g >
<title>alloc_anon_folio (102,129,365 samples, 2.31%)</title><rect x="1143.8" y="197" width="27.3" height="15.0" fill="rgb(223,86,20)" rx="2" ry="2" />
<text  x="1146.84" y="207.5" >a..</text>
</g>
<g >
<title>zone_statistics (1,953,224 samples, 0.04%)</title><rect x="1169.4" y="69" width="0.5" height="15.0" fill="rgb(232,125,29)" rx="2" ry="2" />
<text  x="1172.35" y="79.5" ></text>
</g>
<g >
<title>__folio_batch_add_and_move (24,096,785 samples, 0.54%)</title><rect x="1171.3" y="165" width="6.4" height="15.0" fill="rgb(254,227,54)" rx="2" ry="2" />
<text  x="1174.26" y="175.5" ></text>
</g>
<g >
<title>el0_da (5,198,194 samples, 0.12%)</title><rect x="1188.4" y="261" width="1.4" height="15.0" fill="rgb(217,55,13)" rx="2" ry="2" />
<text  x="1191.44" y="271.5" ></text>
</g>
<g >
<title>vma_alloc_zeroed_movable_folio (633,394 samples, 0.01%)</title><rect x="1189.1" y="117" width="0.2" height="15.0" fill="rgb(232,126,30)" rx="2" ry="2" />
<text  x="1192.13" y="127.5" ></text>
</g>
<g >
<title>alloc_pages_mpol (652,045 samples, 0.01%)</title><rect x="1188.6" y="85" width="0.2" height="15.0" fill="rgb(254,227,54)" rx="2" ry="2" />
<text  x="1191.61" y="95.5" ></text>
</g>
<g >
<title>do_el0_svc (1,303,529 samples, 0.03%)</title><rect x="1188.1" y="197" width="0.3" height="15.0" fill="rgb(218,60,14)" rx="2" ry="2" />
<text  x="1191.09" y="207.5" ></text>
</g>
<g >
<title>el0_da (213,349,559 samples, 4.82%)</title><rect x="1130.3" y="325" width="56.9" height="15.0" fill="rgb(217,55,13)" rx="2" ry="2" />
<text  x="1133.31" y="335.5" >el0_da</text>
</g>
<g >
<title>percpu_ref_get_many (1,303,041 samples, 0.03%)</title><rect x="1148.5" y="165" width="0.4" height="15.0" fill="rgb(253,222,53)" rx="2" ry="2" />
<text  x="1151.53" y="175.5" ></text>
</g>
<g >
<title>get_mem_cgroup_from_mm (1,952,455 samples, 0.04%)</title><rect x="1149.0" y="181" width="0.6" height="15.0" fill="rgb(218,61,14)" rx="2" ry="2" />
<text  x="1152.05" y="191.5" ></text>
</g>
<g >
<title>malloc (9,747,556 samples, 0.22%)</title><rect x="1187.2" y="341" width="2.6" height="15.0" fill="rgb(230,119,28)" rx="2" ry="2" />
<text  x="1190.22" y="351.5" ></text>
</g>
<g >
<title>__brk (2,603,599 samples, 0.06%)</title><rect x="1187.7" y="261" width="0.7" height="15.0" fill="rgb(225,94,22)" rx="2" ry="2" />
<text  x="1190.74" y="271.5" ></text>
</g>
<g >
<title>__pte_offset_map_lock (20,795,343 samples, 0.47%)</title><rect x="1138.1" y="197" width="5.6" height="15.0" fill="rgb(240,163,39)" rx="2" ry="2" />
<text  x="1141.12" y="207.5" ></text>
</g>
<g >
<title>lock_vma_under_rcu (8,450,725 samples, 0.19%)</title><rect x="1184.4" y="261" width="2.3" height="15.0" fill="rgb(251,211,50)" rx="2" ry="2" />
<text  x="1187.45" y="271.5" ></text>
</g>
<g >
<title>folio_alloc_mpol_noprof (418,600 samples, 0.01%)</title><rect x="10.0" y="165" width="0.1" height="15.0" fill="rgb(219,64,15)" rx="2" ry="2" />
<text  x="13.00" y="175.5" ></text>
</g>
<g >
<title>__handle_mm_fault (5,198,194 samples, 0.12%)</title><rect x="1188.4" y="181" width="1.4" height="15.0" fill="rgb(207,9,2)" rx="2" ry="2" />
<text  x="1191.44" y="191.5" ></text>
</g>
<g >
<title>new_do_write (654,427 samples, 0.01%)</title><rect x="671.5" y="325" width="0.2" height="15.0" fill="rgb(206,5,1)" rx="2" ry="2" />
<text  x="674.50" y="335.5" ></text>
</g>
<g >
<title>el0t_64_sync (2,603,599 samples, 0.06%)</title><rect x="1187.7" y="245" width="0.7" height="15.0" fill="rgb(217,56,13)" rx="2" ry="2" />
<text  x="1190.74" y="255.5" ></text>
</g>
<g >
<title>__pte_alloc (652,045 samples, 0.01%)</title><rect x="1188.6" y="133" width="0.2" height="15.0" fill="rgb(218,62,15)" rx="2" ry="2" />
<text  x="1191.61" y="143.5" ></text>
</g>
<g >
<title>_int_malloc (9,099,219 samples, 0.21%)</title><rect x="1187.4" y="325" width="2.4" height="15.0" fill="rgb(215,47,11)" rx="2" ry="2" />
<text  x="1190.40" y="335.5" ></text>
</g>
<g >
<title>format_route_label[abi:cxx11] (651,823 samples, 0.01%)</title><rect x="671.7" y="373" width="0.1" height="15.0" fill="rgb(250,211,50)" rx="2" ry="2" />
<text  x="674.67" y="383.5" ></text>
</g>
<g >
<title>mem_cgroup_from_task (651,435 samples, 0.01%)</title><rect x="1186.7" y="261" width="0.2" height="15.0" fill="rgb(247,195,46)" rx="2" ry="2" />
<text  x="1189.70" y="271.5" ></text>
</g>
<g >
<title>iterate_tty_write (654,427 samples, 0.01%)</title><rect x="671.5" y="101" width="0.2" height="15.0" fill="rgb(225,95,22)" rx="2" ry="2" />
<text  x="674.50" y="111.5" ></text>
</g>
<g >
<title>do_translation_fault (5,198,194 samples, 0.12%)</title><rect x="1188.4" y="229" width="1.4" height="15.0" fill="rgb(239,158,37)" rx="2" ry="2" />
<text  x="1191.44" y="239.5" ></text>
</g>
<g >
<title>folio_add_new_anon_rmap (15,589,826 samples, 0.35%)</title><rect x="1177.7" y="197" width="4.1" height="15.0" fill="rgb(233,133,31)" rx="2" ry="2" />
<text  x="1180.69" y="207.5" ></text>
</g>
<g >
<title>el0t_64_sync (213,349,559 samples, 4.82%)</title><rect x="1130.3" y="357" width="56.9" height="15.0" fill="rgb(217,56,13)" rx="2" ry="2" />
<text  x="1133.31" y="367.5" >el0t_6..</text>
</g>
<g >
<title>vmf_pte_changed (648,672 samples, 0.01%)</title><rect x="1182.7" y="213" width="0.2" height="15.0" fill="rgb(223,83,20)" rx="2" ry="2" />
<text  x="1185.72" y="223.5" ></text>
</g>
<g >
<title>__mem_cgroup_charge (654,133 samples, 0.01%)</title><rect x="1137.9" y="197" width="0.2" height="15.0" fill="rgb(218,60,14)" rx="2" ry="2" />
<text  x="1140.94" y="207.5" ></text>
</g>
<g >
<title>alloc_pages_noprof (652,045 samples, 0.01%)</title><rect x="1188.6" y="117" width="0.2" height="15.0" fill="rgb(233,130,31)" rx="2" ry="2" />
<text  x="1191.61" y="127.5" ></text>
</g>
<g >
<title>vma_alloc_folio_noprof (79,354,548 samples, 1.79%)</title><rect x="1149.9" y="165" width="21.2" height="15.0" fill="rgb(218,61,14)" rx="2" ry="2" />
<text  x="1152.92" y="175.5" ></text>
</g>
<g >
<title>vma_expand (651,179 samples, 0.01%)</title><rect x="1188.3" y="85" width="0.1" height="15.0" fill="rgb(222,80,19)" rx="2" ry="2" />
<text  x="1191.26" y="95.5" ></text>
</g>
<g >
<title>__mem_cgroup_charge (18,869,596 samples, 0.43%)</title><rect x="1144.0" y="181" width="5.0" height="15.0" fill="rgb(218,60,14)" rx="2" ry="2" />
<text  x="1147.01" y="191.5" ></text>
</g>
<g >
<title>vma_merge_new_range (651,179 samples, 0.01%)</title><rect x="1188.3" y="101" width="0.1" height="15.0" fill="rgb(245,186,44)" rx="2" ry="2" />
<text  x="1191.26" y="111.5" ></text>
</g>
<g >
<title>__alloc_frozen_pages_noprof (418,600 samples, 0.01%)</title><rect x="10.0" y="133" width="0.1" height="15.0" fill="rgb(228,109,26)" rx="2" ry="2" />
<text  x="13.00" y="143.5" ></text>
</g>
<g >
<title>do_page_fault (5,198,194 samples, 0.12%)</title><rect x="1188.4" y="213" width="1.4" height="15.0" fill="rgb(216,54,13)" rx="2" ry="2" />
<text  x="1191.44" y="223.5" ></text>
</g>
<g >
<title>rmqueue_bulk (7,162,180 samples, 0.16%)</title><rect x="1167.4" y="53" width="2.0" height="15.0" fill="rgb(235,138,33)" rx="2" ry="2" />
<text  x="1170.44" y="63.5" ></text>
</g>
<g >
<title>summarize_heatmap (655,339 samples, 0.01%)</title><rect x="1189.8" y="389" width="0.2" height="15.0" fill="rgb(206,7,1)" rx="2" ry="2" />
<text  x="1192.82" y="399.5" ></text>
</g>
<g >
<title>alloc_pages_mpol (77,397,132 samples, 1.75%)</title><rect x="1149.9" y="133" width="20.7" height="15.0" fill="rgb(254,227,54)" rx="2" ry="2" />
<text  x="1152.92" y="143.5" ></text>
</g>
<g >
<title>invoke_syscall (1,303,529 samples, 0.03%)</title><rect x="1188.1" y="165" width="0.3" height="15.0" fill="rgb(209,18,4)" rx="2" ry="2" />
<text  x="1191.09" y="175.5" ></text>
</g>
<g >
<title>folio_alloc_mpol_noprof (77,397,132 samples, 1.75%)</title><rect x="1149.9" y="149" width="20.7" height="15.0" fill="rgb(219,64,15)" rx="2" ry="2" />
<text  x="1152.92" y="159.5" ></text>
</g>
<g >
<title>do_mem_abort (200,980,057 samples, 4.54%)</title><rect x="1133.6" y="309" width="53.6" height="15.0" fill="rgb(249,206,49)" rx="2" ry="2" />
<text  x="1136.61" y="319.5" >do_me..</text>
</g>
<g >
<title>__arm64_sys_brk (1,303,529 samples, 0.03%)</title><rect x="1188.1" y="149" width="0.3" height="15.0" fill="rgb(228,109,26)" rx="2" ry="2" />
<text  x="1191.09" y="159.5" ></text>
</g>
<g >
<title>std::mersenne_twister_engine&lt;unsigned long, 32ul, 624ul, 397ul, 31ul, 2567483615ul, 11ul, 4294967295ul, 7ul, 2636928640ul, 15ul, 4022730752ul, 18ul, 1812433253ul&gt;::operator (803,801 samples, 0.02%)</title><rect x="671.3" y="357" width="0.2" height="15.0" fill="rgb(235,139,33)" rx="2" ry="2" />
<text  x="674.29" y="367.5" ></text>
</g>
<g >
<title>___pte_offset_map (648,543 samples, 0.01%)</title><rect x="1182.5" y="197" width="0.2" height="15.0" fill="rgb(236,142,34)" rx="2" ry="2" />
<text  x="1185.54" y="207.5" ></text>
</g>
<g >
<title>vma_alloc_zeroed_movable_folio (80,658,633 samples, 1.82%)</title><rect x="1149.6" y="181" width="21.5" height="15.0" fill="rgb(232,126,30)" rx="2" ry="2" />
<text  x="1152.57" y="191.5" >v..</text>
</g>
<g >
<title>__pi_memset_generic (648,340 samples, 0.01%)</title><rect x="1183.2" y="245" width="0.2" height="15.0" fill="rgb(216,52,12)" rx="2" ry="2" />
<text  x="1186.23" y="255.5" ></text>
</g>
<g >
<title>handle_mm_fault (5,198,194 samples, 0.12%)</title><rect x="1188.4" y="197" width="1.4" height="15.0" fill="rgb(234,135,32)" rx="2" ry="2" />
<text  x="1191.44" y="207.5" ></text>
</g>
<g >
<title>mod_memcg_lruvec_state (2,603,763 samples, 0.06%)</title><rect x="1180.5" y="149" width="0.7" height="15.0" fill="rgb(224,91,21)" rx="2" ry="2" />
<text  x="1183.46" y="159.5" ></text>
</g>
<g >
<title>alloc_perturb (649,619 samples, 0.01%)</title><rect x="1187.4" y="309" width="0.2" height="15.0" fill="rgb(234,134,32)" rx="2" ry="2" />
<text  x="1190.40" y="319.5" ></text>
</g>
<g >
<title>cap_vm_enough_memory (652,350 samples, 0.01%)</title><rect x="1188.1" y="101" width="0.2" height="15.0" fill="rgb(247,195,46)" rx="2" ry="2" />
<text  x="1191.09" y="111.5" ></text>
</g>
<g >
<title>next_pressure_value (910,149,805 samples, 20.58%)</title><rect x="428.5" y="373" width="242.8" height="15.0" fill="rgb(210,27,6)" rx="2" ry="2" />
<text  x="431.45" y="383.5" >next_pressure_value</text>
</g>
<g >
<title>__mod_node_page_state (652,653 samples, 0.01%)</title><rect x="1181.2" y="165" width="0.1" height="15.0" fill="rgb(213,38,9)" rx="2" ry="2" />
<text  x="1184.15" y="175.5" ></text>
</g>
<g >
<title>folio_add_lru_vma (1,955,486 samples, 0.04%)</title><rect x="1189.3" y="133" width="0.5" height="15.0" fill="rgb(252,216,51)" rx="2" ry="2" />
<text  x="1192.30" y="143.5" ></text>
</g>
<g >
<title>vma_alloc_zeroed_movable_folio (418,600 samples, 0.01%)</title><rect x="10.0" y="197" width="0.1" height="15.0" fill="rgb(232,126,30)" rx="2" ry="2" />
<text  x="13.00" y="207.5" ></text>
</g>
<g >
<title>sysmalloc (8,449,600 samples, 0.19%)</title><rect x="1187.6" y="309" width="2.2" height="15.0" fill="rgb(213,38,9)" rx="2" ry="2" />
<text  x="1190.57" y="319.5" ></text>
</g>
<g >
<title>pte_offset_map_rw_nolock (1,300,546 samples, 0.03%)</title><rect x="1182.4" y="213" width="0.3" height="15.0" fill="rgb(221,75,18)" rx="2" ry="2" />
<text  x="1185.37" y="223.5" ></text>
</g>
<g >
<title>get_page_from_freelist (652,045 samples, 0.01%)</title><rect x="1188.6" y="53" width="0.2" height="15.0" fill="rgb(252,218,52)" rx="2" ry="2" />
<text  x="1191.61" y="63.5" ></text>
</g>
<g >
<title>__lruvec_stat_mod_folio (11,682,861 samples, 0.26%)</title><rect x="1178.0" y="165" width="3.2" height="15.0" fill="rgb(246,191,45)" rx="2" ry="2" />
<text  x="1181.04" y="175.5" ></text>
</g>
<g >
<title>int std::uniform_int_distribution&lt;int&gt;::operator (825,019 samples, 0.02%)</title><rect x="671.3" y="373" width="0.2" height="15.0" fill="rgb(244,180,43)" rx="2" ry="2" />
<text  x="674.28" y="383.5" ></text>
</g>
<g >
<title>folio_add_lru (1,955,486 samples, 0.04%)</title><rect x="1189.3" y="117" width="0.5" height="15.0" fill="rgb(208,17,4)" rx="2" ry="2" />
<text  x="1192.30" y="127.5" ></text>
</g>
<g >
<title>count_memcg_events (3,251,960 samples, 0.07%)</title><rect x="1183.4" y="245" width="0.9" height="15.0" fill="rgb(228,107,25)" rx="2" ry="2" />
<text  x="1186.41" y="255.5" ></text>
</g>
<g >
<title>rmqueue.isra.0 (1,293,477 samples, 0.03%)</title><rect x="1170.0" y="101" width="0.4" height="15.0" fill="rgb(237,151,36)" rx="2" ry="2" />
<text  x="1173.05" y="111.5" ></text>
</g>
<g >
<title>do_translation_fault (418,600 samples, 0.01%)</title><rect x="10.0" y="309" width="0.1" height="15.0" fill="rgb(239,158,37)" rx="2" ry="2" />
<text  x="13.00" y="319.5" ></text>
</g>
<g >
<title>do_anonymous_page (418,600 samples, 0.01%)</title><rect x="10.0" y="229" width="0.1" height="15.0" fill="rgb(238,155,37)" rx="2" ry="2" />
<text  x="13.00" y="239.5" ></text>
</g>
<g >
<title>charge_memcg (13,659,423 samples, 0.31%)</title><rect x="1144.5" y="165" width="3.7" height="15.0" fill="rgb(242,170,40)" rx="2" ry="2" />
<text  x="1147.54" y="175.5" ></text>
</g>
<g >
<title>__libc_start_main@@GLIBC_2.34 (4,423,141,057 samples, 100.00%)</title><rect x="10.0" y="437" width="1180.0" height="15.0" fill="rgb(229,113,27)" rx="2" ry="2" />
<text  x="13.00" y="447.5" >__libc_start_main@@GLIBC_2.34</text>
</g>
<g >
<title>n_tty_write (654,427 samples, 0.01%)</title><rect x="671.5" y="85" width="0.2" height="15.0" fill="rgb(210,23,5)" rx="2" ry="2" />
<text  x="674.50" y="95.5" ></text>
</g>
<g >
<title>get_page_from_freelist (653,804 samples, 0.01%)</title><rect x="1170.4" y="117" width="0.2" height="15.0" fill="rgb(252,218,52)" rx="2" ry="2" />
<text  x="1173.39" y="127.5" ></text>
</g>
<g >
<title>el0t_64_sync_handler (5,198,194 samples, 0.12%)</title><rect x="1188.4" y="277" width="1.4" height="15.0" fill="rgb(211,32,7)" rx="2" ry="2" />
<text  x="1191.44" y="287.5" ></text>
</g>
<g >
<title>rmqueue.isra.0 (13,666,906 samples, 0.31%)</title><rect x="1166.2" y="85" width="3.7" height="15.0" fill="rgb(237,151,36)" rx="2" ry="2" />
<text  x="1169.23" y="95.5" ></text>
</g>
<g >
<title>folios_put_refs (1,306,729 samples, 0.03%)</title><rect x="1177.3" y="133" width="0.4" height="15.0" fill="rgb(254,229,54)" rx="2" ry="2" />
<text  x="1180.34" y="143.5" ></text>
</g>
<g >
<title>el0_svc (2,603,599 samples, 0.06%)</title><rect x="1187.7" y="213" width="0.7" height="15.0" fill="rgb(244,183,43)" rx="2" ry="2" />
<text  x="1190.74" y="223.5" ></text>
</g>
<g >
<title>process_output_block (654,427 samples, 0.01%)</title><rect x="671.5" y="69" width="0.2" height="15.0" fill="rgb(252,216,51)" rx="2" ry="2" />
<text  x="674.50" y="79.5" ></text>
</g>
<g >
<title>__vma_start_write (651,179 samples, 0.01%)</title><rect x="1188.3" y="69" width="0.1" height="15.0" fill="rgb(225,96,23)" rx="2" ry="2" />
<text  x="1191.26" y="79.5" ></text>
</g>
<g >
<title>do_el0_svc (654,427 samples, 0.01%)</title><rect x="671.5" y="229" width="0.2" height="15.0" fill="rgb(218,60,14)" rx="2" ry="2" />
<text  x="674.50" y="239.5" ></text>
</g>
<g >
<title>el0_da (418,600 samples, 0.01%)</title><rect x="10.0" y="341" width="0.1" height="15.0" fill="rgb(217,55,13)" rx="2" ry="2" />
<text  x="13.00" y="351.5" ></text>
</g>
<g >
<title>post_alloc_hook (1,303,401 samples, 0.03%)</title><rect x="1165.9" y="85" width="0.3" height="15.0" fill="rgb(227,104,24)" rx="2" ry="2" />
<text  x="1168.88" y="95.5" ></text>
</g>
<g >
<title>pte_offset_map_rw_nolock (1,292,678 samples, 0.03%)</title><rect x="1182.9" y="229" width="0.3" height="15.0" fill="rgb(221,75,18)" rx="2" ry="2" />
<text  x="1185.89" y="239.5" ></text>
</g>
<g >
<title>el0_svc (654,427 samples, 0.01%)</title><rect x="671.5" y="245" width="0.2" height="15.0" fill="rgb(244,183,43)" rx="2" ry="2" />
<text  x="674.50" y="255.5" ></text>
</g>
<g >
<title>std::mersenne_twister_engine&lt;unsigned long, 32ul, 624ul, 397ul, 31ul, 2567483615ul, 11ul, 4294967295ul, 7ul, 2636928640ul, 15ul, 4022730752ul, 18ul, 1812433253ul&gt;::_M_gen_rand (628,614 samples, 0.01%)</title><rect x="671.3" y="341" width="0.2" height="15.0" fill="rgb(207,12,3)" rx="2" ry="2" />
<text  x="674.33" y="351.5" ></text>
</g>
<g >
<title>__memset_zva64 (418,600 samples, 0.01%)</title><rect x="10.0" y="389" width="0.1" height="15.0" fill="rgb(205,1,0)" rx="2" ry="2" />
<text  x="13.00" y="399.5" ></text>
</g>
<g >
<title>__pi_clear_page (652,045 samples, 0.01%)</title><rect x="1188.6" y="37" width="0.2" height="15.0" fill="rgb(236,144,34)" rx="2" ry="2" />
<text  x="1191.61" y="47.5" ></text>
</g>
<g >
<title>_IO_do_write@@GLIBC_2.17 (654,427 samples, 0.01%)</title><rect x="671.5" y="341" width="0.2" height="15.0" fill="rgb(229,112,26)" rx="2" ry="2" />
<text  x="674.50" y="351.5" ></text>
</g>
<g >
<title>alloc_anon_folio (418,600 samples, 0.01%)</title><rect x="10.0" y="213" width="0.1" height="15.0" fill="rgb(223,86,20)" rx="2" ry="2" />
<text  x="13.00" y="223.5" ></text>
</g>
<g >
<title>alloc_pages_mpol (418,600 samples, 0.01%)</title><rect x="10.0" y="149" width="0.1" height="15.0" fill="rgb(254,227,54)" rx="2" ry="2" />
<text  x="13.00" y="159.5" ></text>
</g>
<g >
<title>tty_write (654,427 samples, 0.01%)</title><rect x="671.5" y="133" width="0.2" height="15.0" fill="rgb(234,134,32)" rx="2" ry="2" />
<text  x="674.50" y="143.5" ></text>
</g>
<g >
<title>css_rstat_updated (1,952,685 samples, 0.04%)</title><rect x="1183.8" y="213" width="0.5" height="15.0" fill="rgb(206,7,1)" rx="2" ry="2" />
<text  x="1186.75" y="223.5" ></text>
</g>
<g >
<title>__do_sys_brk (1,303,529 samples, 0.03%)</title><rect x="1188.1" y="133" width="0.3" height="15.0" fill="rgb(217,58,13)" rx="2" ry="2" />
<text  x="1191.09" y="143.5" ></text>
</g>
<g >
<title>run_all_requests (1,942,249,090 samples, 43.91%)</title><rect x="671.7" y="389" width="518.1" height="15.0" fill="rgb(249,203,48)" rx="2" ry="2" />
<text  x="674.67" y="399.5" >run_all_requests</text>
</g>
<g >
<title>ksys_write (654,427 samples, 0.01%)</title><rect x="671.5" y="165" width="0.2" height="15.0" fill="rgb(205,4,1)" rx="2" ry="2" />
<text  x="674.50" y="175.5" ></text>
</g>
<g >
<title>alloc_anon_folio (1,938,588 samples, 0.04%)</title><rect x="1188.8" y="133" width="0.5" height="15.0" fill="rgb(223,86,20)" rx="2" ry="2" />
<text  x="1191.79" y="143.5" ></text>
</g>
<g >
<title>handle_pte_fault (418,600 samples, 0.01%)</title><rect x="10.0" y="245" width="0.1" height="15.0" fill="rgb(217,57,13)" rx="2" ry="2" />
<text  x="13.00" y="255.5" ></text>
</g>
<g >
<title>__memset_zva64 (12,981,473 samples, 0.29%)</title><rect x="1126.8" y="357" width="3.5" height="15.0" fill="rgb(205,1,0)" rx="2" ry="2" />
<text  x="1129.84" y="367.5" ></text>
</g>
<g >
<title>el0t_64_sync (654,427 samples, 0.01%)</title><rect x="671.5" y="277" width="0.2" height="15.0" fill="rgb(217,56,13)" rx="2" ry="2" />
<text  x="674.50" y="287.5" ></text>
</g>
<g >
<title>folio_alloc_mpol_noprof (1,304,085 samples, 0.03%)</title><rect x="1149.6" y="165" width="0.3" height="15.0" fill="rgb(219,64,15)" rx="2" ry="2" />
<text  x="1152.57" y="175.5" ></text>
</g>
<g >
<title>__handle_mm_fault (176,241,654 samples, 3.98%)</title><rect x="1136.2" y="245" width="47.0" height="15.0" fill="rgb(207,9,2)" rx="2" ry="2" />
<text  x="1139.22" y="255.5" >__ha..</text>
</g>
<g >
<title>el0t_64_sync_handler (654,427 samples, 0.01%)</title><rect x="671.5" y="261" width="0.2" height="15.0" fill="rgb(211,32,7)" rx="2" ry="2" />
<text  x="674.50" y="271.5" ></text>
</g>
<g >
<title>folio_add_lru (24,747,973 samples, 0.56%)</title><rect x="1171.1" y="181" width="6.6" height="15.0" fill="rgb(208,17,4)" rx="2" ry="2" />
<text  x="1174.09" y="191.5" ></text>
</g>
<g >
<title>memcg_rstat_updated.part.0 (651,635 samples, 0.01%)</title><rect x="1180.3" y="149" width="0.2" height="15.0" fill="rgb(225,96,23)" rx="2" ry="2" />
<text  x="1183.29" y="159.5" ></text>
</g>
<g >
<title>mod_memcg_lruvec_state (1,302,402 samples, 0.03%)</title><rect x="1181.3" y="165" width="0.4" height="15.0" fill="rgb(224,91,21)" rx="2" ry="2" />
<text  x="1184.33" y="175.5" ></text>
</g>
<g >
<title>main (4,423,141,057 samples, 100.00%)</title><rect x="10.0" y="405" width="1180.0" height="15.0" fill="rgb(243,179,42)" rx="2" ry="2" />
<text  x="13.00" y="415.5" >main</text>
</g>
<g >
<title>vma_start_read (1,958,353 samples, 0.04%)</title><rect x="1186.2" y="245" width="0.5" height="15.0" fill="rgb(227,101,24)" rx="2" ry="2" />
<text  x="1189.18" y="255.5" ></text>
</g>
<g >
<title>el0_svc_common.constprop.0 (654,427 samples, 0.01%)</title><rect x="671.5" y="213" width="0.2" height="15.0" fill="rgb(224,89,21)" rx="2" ry="2" />
<text  x="674.50" y="223.5" ></text>
</g>
<g >
<title>get_vma_policy (1,957,416 samples, 0.04%)</title><rect x="1170.6" y="149" width="0.5" height="15.0" fill="rgb(238,153,36)" rx="2" ry="2" />
<text  x="1173.56" y="159.5" ></text>
</g>
<g >
<title>__set_ptes_anysz.constprop.0 (654,755 samples, 0.01%)</title><rect x="1143.7" y="197" width="0.1" height="15.0" fill="rgb(231,123,29)" rx="2" ry="2" />
<text  x="1146.67" y="207.5" ></text>
</g>
<g >
<title>operator new (9,747,556 samples, 0.22%)</title><rect x="1187.2" y="357" width="2.6" height="15.0" fill="rgb(216,51,12)" rx="2" ry="2" />
<text  x="1190.22" y="367.5" ></text>
</g>
<g >
<title>grid_bfs (4,423,141,057 samples, 100.00%)</title><rect x="10.0" y="469" width="1180.0" height="15.0" fill="rgb(238,156,37)" rx="2" ry="2" />
<text  x="13.00" y="479.5" >grid_bfs</text>
</g>
<g >
<title>__cond_resched (1,300,481 samples, 0.03%)</title><rect x="1150.6" y="101" width="0.4" height="15.0" fill="rgb(217,58,14)" rx="2" ry="2" />
<text  x="1153.61" y="111.5" ></text>
</g>
<g >
<title>__arm64_sys_write (654,427 samples, 0.01%)</title><rect x="671.5" y="181" width="0.2" height="15.0" fill="rgb(254,226,54)" rx="2" ry="2" />
<text  x="674.50" y="191.5" ></text>
</g>
<g >
<title>vfs_write (654,427 samples, 0.01%)</title><rect x="671.5" y="149" width="0.2" height="15.0" fill="rgb(250,209,50)" rx="2" ry="2" />
<text  x="674.50" y="159.5" ></text>
</g>
<g >
<title>__handle_mm_fault (418,600 samples, 0.01%)</title><rect x="10.0" y="261" width="0.1" height="15.0" fill="rgb(207,9,2)" rx="2" ry="2" />
<text  x="13.00" y="271.5" ></text>
</g>
<g >
<title>vma_start_read (650,725 samples, 0.01%)</title><rect x="1186.9" y="261" width="0.2" height="15.0" fill="rgb(227,101,24)" rx="2" ry="2" />
<text  x="1189.88" y="271.5" ></text>
</g>
<g >
<title>__handle_mm_fault (651,503 samples, 0.01%)</title><rect x="1135.9" y="261" width="0.1" height="15.0" fill="rgb(207,9,2)" rx="2" ry="2" />
<text  x="1138.87" y="271.5" ></text>
</g>
<g >
<title>folio_add_lru_vma (24,747,973 samples, 0.56%)</title><rect x="1171.1" y="197" width="6.6" height="15.0" fill="rgb(252,216,51)" rx="2" ry="2" />
<text  x="1174.09" y="207.5" ></text>
</g>
<g >
<title>get_task_policy.part.0 (1,305,027 samples, 0.03%)</title><rect x="1170.7" y="133" width="0.4" height="15.0" fill="rgb(230,119,28)" rx="2" ry="2" />
<text  x="1173.74" y="143.5" ></text>
</g>
<g >
<title>el0t_64_sync (418,600 samples, 0.01%)</title><rect x="10.0" y="373" width="0.1" height="15.0" fill="rgb(217,56,13)" rx="2" ry="2" />
<text  x="13.00" y="383.5" ></text>
</g>
<g >
<title>_start (4,423,141,057 samples, 100.00%)</title><rect x="10.0" y="453" width="1180.0" height="15.0" fill="rgb(245,185,44)" rx="2" ry="2" />
<text  x="13.00" y="463.5" >_start</text>
</g>
<g >
<title>__alloc_frozen_pages_noprof (652,045 samples, 0.01%)</title><rect x="1188.6" y="69" width="0.2" height="15.0" fill="rgb(228,109,26)" rx="2" ry="2" />
<text  x="1191.61" y="79.5" ></text>
</g>
<g >
<title>do_brk_flags (1,303,529 samples, 0.03%)</title><rect x="1188.1" y="117" width="0.3" height="15.0" fill="rgb(220,73,17)" rx="2" ry="2" />
<text  x="1191.09" y="127.5" ></text>
</g>
<g >
<title>print_summary (654,427 samples, 0.01%)</title><rect x="671.5" y="389" width="0.2" height="15.0" fill="rgb(250,207,49)" rx="2" ry="2" />
<text  x="674.50" y="399.5" ></text>
</g>
<g >
<title>do_translation_fault (200,328,309 samples, 4.53%)</title><rect x="1133.8" y="293" width="53.4" height="15.0" fill="rgb(239,158,37)" rx="2" ry="2" />
<text  x="1136.78" y="303.5" >do_tr..</text>
</g>
<g >
<title>do_mem_abort (5,198,194 samples, 0.12%)</title><rect x="1188.4" y="245" width="1.4" height="15.0" fill="rgb(249,206,49)" rx="2" ry="2" />
<text  x="1191.44" y="255.5" ></text>
</g>
<g >
<title>__folio_batch_add_and_move (1,955,486 samples, 0.04%)</title><rect x="1189.3" y="101" width="0.5" height="15.0" fill="rgb(254,227,54)" rx="2" ry="2" />
<text  x="1192.30" y="111.5" ></text>
</g>
<g >
<title>file_tty_write.isra.0 (654,427 samples, 0.01%)</title><rect x="671.5" y="117" width="0.2" height="15.0" fill="rgb(244,182,43)" rx="2" ry="2" />
<text  x="674.50" y="127.5" ></text>
</g>
<g >
<title>do_mem_abort (418,600 samples, 0.01%)</title><rect x="10.0" y="325" width="0.1" height="15.0" fill="rgb(249,206,49)" rx="2" ry="2" />
<text  x="13.00" y="335.5" ></text>
</g>
<g >
<title>mas_walk (5,838,500 samples, 0.13%)</title><rect x="1184.6" y="245" width="1.6" height="15.0" fill="rgb(242,170,40)" rx="2" ry="2" />
<text  x="1187.62" y="255.5" ></text>
</g>
<g >
<title>try_charge_memcg (2,614,223 samples, 0.06%)</title><rect x="1147.5" y="149" width="0.7" height="15.0" fill="rgb(210,27,6)" rx="2" ry="2" />
<text  x="1150.48" y="159.5" ></text>
</g>
<g >
<title>handle_mm_fault (181,448,945 samples, 4.10%)</title><rect x="1136.0" y="261" width="48.4" height="15.0" fill="rgb(234,135,32)" rx="2" ry="2" />
<text  x="1139.04" y="271.5" >hand..</text>
</g>
<g >
<title>shortest_path_bfs (1,941,597,267 samples, 43.90%)</title><rect x="671.8" y="373" width="518.0" height="15.0" fill="rgb(217,58,14)" rx="2" ry="2" />
<text  x="674.85" y="383.5" >shortest_path_bfs</text>
</g>
<g >
<title>memset (653,613 samples, 0.01%)</title><rect x="1184.3" y="245" width="0.1" height="15.0" fill="rgb(208,14,3)" rx="2" ry="2" />
<text  x="1187.27" y="255.5" ></text>
</g>
<g >
<title>rcu_all_qs (1,300,481 samples, 0.03%)</title><rect x="1150.6" y="85" width="0.4" height="15.0" fill="rgb(209,21,5)" rx="2" ry="2" />
<text  x="1153.61" y="95.5" ></text>
</g>
<g >
<title>pty_write (654,427 samples, 0.01%)</title><rect x="671.5" y="53" width="0.2" height="15.0" fill="rgb(210,23,5)" rx="2" ry="2" />
<text  x="674.50" y="63.5" ></text>
</g>
<g >
<title>do_anonymous_page (4,546,119 samples, 0.10%)</title><rect x="1188.6" y="149" width="1.2" height="15.0" fill="rgb(238,155,37)" rx="2" ry="2" />
<text  x="1191.61" y="159.5" ></text>
</g>
<g >
<title>__GI___libc_write (654,427 samples, 0.01%)</title><rect x="671.5" y="293" width="0.2" height="15.0" fill="rgb(217,57,13)" rx="2" ry="2" />
<text  x="674.50" y="303.5" ></text>
</g>
<g >
<title>std::ostream::put (654,427 samples, 0.01%)</title><rect x="671.5" y="373" width="0.2" height="15.0" fill="rgb(219,64,15)" rx="2" ry="2" />
<text  x="674.50" y="383.5" ></text>
</g>
<g >
<title>do_page_fault (418,600 samples, 0.01%)</title><rect x="10.0" y="293" width="0.1" height="15.0" fill="rgb(216,54,13)" rx="2" ry="2" />
<text  x="13.00" y="303.5" ></text>
</g>
<g >
<title>__folio_mod_stat (14,290,037 samples, 0.32%)</title><rect x="1177.9" y="181" width="3.8" height="15.0" fill="rgb(254,227,54)" rx="2" ry="2" />
<text  x="1180.86" y="191.5" ></text>
</g>
<g >
<title>get_mem_cgroup_from_mm (652,178 samples, 0.01%)</title><rect x="1189.0" y="101" width="0.1" height="15.0" fill="rgb(218,61,14)" rx="2" ry="2" />
<text  x="1191.96" y="111.5" ></text>
</g>
<g >
<title>memcg_rstat_updated.part.0 (2,605,380 samples, 0.06%)</title><rect x="1183.6" y="229" width="0.7" height="15.0" fill="rgb(225,96,23)" rx="2" ry="2" />
<text  x="1186.58" y="239.5" ></text>
</g>
<g >
<title>__sbrk (2,603,599 samples, 0.06%)</title><rect x="1187.7" y="277" width="0.7" height="15.0" fill="rgb(232,126,30)" rx="2" ry="2" />
<text  x="1190.74" y="287.5" ></text>
</g>
</g>
</svg>
